<mxfile host="app.diagrams.net" modified="2023-04-18T22:32:50.009Z" agent="Mozilla/5.0 (X11; Ubuntu; Linux x86_64; rv:109.0) Gecko/20100101 Firefox/112.0" etag="BIjTHXGTgPQ7FaNlqHI_" version="21.1.9" type="github">
  <diagram id="R2lEEEUBdFMjLlhIrx00" name="Page-1">
    <mxGraphModel dx="2868" dy="1498" grid="1" gridSize="14" guides="1" tooltips="1" connect="1" arrows="1" fold="1" page="1" pageScale="1" pageWidth="850" pageHeight="1100" background="#ffffff" math="0" shadow="0" extFonts="Permanent Marker^https://fonts.googleapis.com/css?family=Permanent+Marker">
      <root>
        <mxCell id="0" />
        <mxCell id="1" parent="0" />
        <mxCell id="YlZFul1MHV9o11l2ybtj-17" value="&lt;p style=&quot;font-size: 25px;&quot; align=&quot;center&quot;&gt;JUEGO&lt;/p&gt;" style="rounded=0;whiteSpace=wrap;html=1;align=center;strokeWidth=2;" vertex="1" parent="1">
          <mxGeometry x="99" y="1359" width="366" height="198" as="geometry" />
        </mxCell>
        <mxCell id="YlZFul1MHV9o11l2ybtj-47" value="&lt;p&gt;&lt;font style=&quot;font-size: 25px;&quot;&gt;PERSONAJE&lt;/font&gt;&lt;/p&gt;" style="rounded=0;whiteSpace=wrap;html=1;strokeWidth=2;" vertex="1" parent="1">
          <mxGeometry x="936" y="1494" width="360" height="195" as="geometry" />
        </mxCell>
        <mxCell id="YlZFul1MHV9o11l2ybtj-48" value="&lt;p&gt;&lt;font style=&quot;font-size: 25px;&quot;&gt;DIALOGOS&lt;/font&gt;&lt;/p&gt;" style="rounded=0;whiteSpace=wrap;html=1;strokeWidth=2;" vertex="1" parent="1">
          <mxGeometry x="225" y="1989" width="360" height="195" as="geometry" />
        </mxCell>
        <mxCell id="YlZFul1MHV9o11l2ybtj-49" value="" style="endArrow=none;html=1;rounded=0;entryX=0;entryY=0.5;entryDx=0;entryDy=0;strokeWidth=1;exitX=1;exitY=0.5;exitDx=0;exitDy=0;" edge="1" parent="1" source="YlZFul1MHV9o11l2ybtj-52" target="YlZFul1MHV9o11l2ybtj-61">
          <mxGeometry width="50" height="50" relative="1" as="geometry">
            <mxPoint x="292" y="1781" as="sourcePoint" />
            <mxPoint x="725" y="1782" as="targetPoint" />
          </mxGeometry>
        </mxCell>
        <mxCell id="YlZFul1MHV9o11l2ybtj-50" value="&lt;font style=&quot;font-size: 15px;&quot;&gt;ID DIALOGO&lt;/font&gt;" style="ellipse;whiteSpace=wrap;html=1;strokeWidth=2;" vertex="1" parent="1">
          <mxGeometry x="1470" y="1650" width="225" height="108" as="geometry" />
        </mxCell>
        <mxCell id="YlZFul1MHV9o11l2ybtj-51" value="&lt;font style=&quot;font-size: 15px;&quot;&gt;HABILIDADES&lt;/font&gt;" style="ellipse;whiteSpace=wrap;html=1;strokeWidth=2;" vertex="1" parent="1">
          <mxGeometry x="826" y="1274" width="210" height="106" as="geometry" />
        </mxCell>
        <mxCell id="YlZFul1MHV9o11l2ybtj-52" value="&lt;font style=&quot;font-size: 15px;&quot;&gt;ESTADISTICAS&lt;/font&gt;" style="ellipse;whiteSpace=wrap;html=1;strokeWidth=2;" vertex="1" parent="1">
          <mxGeometry x="1496.5" y="1442" width="207" height="108" as="geometry" />
        </mxCell>
        <mxCell id="YlZFul1MHV9o11l2ybtj-58" value="&lt;font style=&quot;font-size: 15px;&quot;&gt;SPRITES&lt;/font&gt;" style="ellipse;whiteSpace=wrap;html=1;strokeWidth=2;" vertex="1" parent="1">
          <mxGeometry x="1162" y="1274" width="214" height="110" as="geometry" />
        </mxCell>
        <mxCell id="YlZFul1MHV9o11l2ybtj-59" value="VIDA" style="ellipse;whiteSpace=wrap;html=1;" vertex="1" parent="1">
          <mxGeometry x="1820" y="1207" width="144" height="81" as="geometry" />
        </mxCell>
        <mxCell id="YlZFul1MHV9o11l2ybtj-60" value="ESTAMINA" style="ellipse;whiteSpace=wrap;html=1;" vertex="1" parent="1">
          <mxGeometry x="1876" y="1736" width="135" height="79" as="geometry" />
        </mxCell>
        <mxCell id="YlZFul1MHV9o11l2ybtj-61" value="ATAQUE" style="ellipse;whiteSpace=wrap;html=1;" vertex="1" parent="1">
          <mxGeometry x="1990" y="1455.75" width="126" height="80.5" as="geometry" />
        </mxCell>
        <mxCell id="YlZFul1MHV9o11l2ybtj-62" value="DEFENSA" style="ellipse;whiteSpace=wrap;html=1;" vertex="1" parent="1">
          <mxGeometry x="1974" y="1596" width="126" height="89" as="geometry" />
        </mxCell>
        <mxCell id="YlZFul1MHV9o11l2ybtj-63" value="PROBABILIDAD DE CRITICO" style="ellipse;whiteSpace=wrap;html=1;" vertex="1" parent="1">
          <mxGeometry x="1990" y="1316" width="135" height="98" as="geometry" />
        </mxCell>
        <mxCell id="YlZFul1MHV9o11l2ybtj-64" style="edgeStyle=orthogonalEdgeStyle;rounded=0;orthogonalLoop=1;jettySize=auto;html=1;exitX=0.5;exitY=1;exitDx=0;exitDy=0;" edge="1" parent="1" source="YlZFul1MHV9o11l2ybtj-61" target="YlZFul1MHV9o11l2ybtj-61">
          <mxGeometry relative="1" as="geometry" />
        </mxCell>
        <mxCell id="YlZFul1MHV9o11l2ybtj-65" value="IDLE" style="ellipse;whiteSpace=wrap;html=1;" vertex="1" parent="1">
          <mxGeometry x="1350" y="997" width="120" height="80" as="geometry" />
        </mxCell>
        <mxCell id="YlZFul1MHV9o11l2ybtj-66" value="AL ATACAR" style="ellipse;whiteSpace=wrap;html=1;" vertex="1" parent="1">
          <mxGeometry x="1496.5" y="1062" width="120" height="80" as="geometry" />
        </mxCell>
        <mxCell id="YlZFul1MHV9o11l2ybtj-67" value="AL SER ATACADO" style="ellipse;whiteSpace=wrap;html=1;" vertex="1" parent="1">
          <mxGeometry x="1176" y="997" width="120" height="81" as="geometry" />
        </mxCell>
        <mxCell id="YlZFul1MHV9o11l2ybtj-68" value="CON ESTADO ALTERADO" style="ellipse;whiteSpace=wrap;html=1;" vertex="1" parent="1">
          <mxGeometry x="1554" y="1176" width="120" height="80" as="geometry" />
        </mxCell>
        <mxCell id="YlZFul1MHV9o11l2ybtj-69" value="" style="endArrow=none;html=1;rounded=0;exitX=0;exitY=1;exitDx=0;exitDy=0;entryX=0.548;entryY=-0.019;entryDx=0;entryDy=0;entryPerimeter=0;" edge="1" parent="1" source="YlZFul1MHV9o11l2ybtj-58" target="YlZFul1MHV9o11l2ybtj-47">
          <mxGeometry width="50" height="50" relative="1" as="geometry">
            <mxPoint x="1269" y="1634" as="sourcePoint" />
            <mxPoint x="1319" y="1584" as="targetPoint" />
          </mxGeometry>
        </mxCell>
        <mxCell id="YlZFul1MHV9o11l2ybtj-70" value="" style="endArrow=none;html=1;rounded=0;exitX=0.328;exitY=0.007;exitDx=0;exitDy=0;exitPerimeter=0;entryX=0.5;entryY=1;entryDx=0;entryDy=0;" edge="1" parent="1" source="YlZFul1MHV9o11l2ybtj-47" target="YlZFul1MHV9o11l2ybtj-51">
          <mxGeometry width="50" height="50" relative="1" as="geometry">
            <mxPoint x="1269" y="1634" as="sourcePoint" />
            <mxPoint x="1319" y="1584" as="targetPoint" />
          </mxGeometry>
        </mxCell>
        <mxCell id="YlZFul1MHV9o11l2ybtj-71" value="HABILIDAD 1" style="ellipse;whiteSpace=wrap;html=1;" vertex="1" parent="1">
          <mxGeometry x="672" y="1100" width="120" height="80" as="geometry" />
        </mxCell>
        <mxCell id="YlZFul1MHV9o11l2ybtj-72" value="&lt;div&gt;HABILIDAD 2&lt;/div&gt;" style="ellipse;whiteSpace=wrap;html=1;" vertex="1" parent="1">
          <mxGeometry x="850" y="1062" width="120" height="80" as="geometry" />
        </mxCell>
        <mxCell id="YlZFul1MHV9o11l2ybtj-73" value="&lt;div&gt;HABILIDAD 3&lt;/div&gt;" style="ellipse;whiteSpace=wrap;html=1;" vertex="1" parent="1">
          <mxGeometry x="1022" y="1096" width="120" height="80" as="geometry" />
        </mxCell>
        <mxCell id="YlZFul1MHV9o11l2ybtj-77" value="&lt;font style=&quot;font-size: 25px;&quot;&gt;BACKGROUNDS&lt;/font&gt;" style="rounded=0;whiteSpace=wrap;html=1;strokeWidth=2;" vertex="1" parent="1">
          <mxGeometry x="945" y="2115" width="360" height="198" as="geometry" />
        </mxCell>
        <mxCell id="YlZFul1MHV9o11l2ybtj-80" value="" style="endArrow=none;html=1;rounded=0;exitX=0;exitY=0;exitDx=0;exitDy=0;entryX=1;entryY=0.5;entryDx=0;entryDy=0;" edge="1" parent="1" source="YlZFul1MHV9o11l2ybtj-50" target="YlZFul1MHV9o11l2ybtj-47">
          <mxGeometry width="50" height="50" relative="1" as="geometry">
            <mxPoint x="1269" y="1724" as="sourcePoint" />
            <mxPoint x="1319" y="1674" as="targetPoint" />
          </mxGeometry>
        </mxCell>
        <mxCell id="YlZFul1MHV9o11l2ybtj-81" value="" style="endArrow=none;html=1;rounded=0;entryX=0.999;entryY=0.363;entryDx=0;entryDy=0;entryPerimeter=0;exitX=0;exitY=0.5;exitDx=0;exitDy=0;" edge="1" parent="1" source="YlZFul1MHV9o11l2ybtj-52" target="YlZFul1MHV9o11l2ybtj-47">
          <mxGeometry width="50" height="50" relative="1" as="geometry">
            <mxPoint x="1377" y="1556" as="sourcePoint" />
            <mxPoint x="1319" y="1674" as="targetPoint" />
          </mxGeometry>
        </mxCell>
        <mxCell id="YlZFul1MHV9o11l2ybtj-82" value="" style="endArrow=none;html=1;rounded=0;entryX=1;entryY=0.5;entryDx=0;entryDy=0;exitX=0.005;exitY=0.642;exitDx=0;exitDy=0;exitPerimeter=0;" edge="1" parent="1" source="YlZFul1MHV9o11l2ybtj-59" target="YlZFul1MHV9o11l2ybtj-52">
          <mxGeometry width="50" height="50" relative="1" as="geometry">
            <mxPoint x="1269" y="1724" as="sourcePoint" />
            <mxPoint x="1319" y="1674" as="targetPoint" />
          </mxGeometry>
        </mxCell>
        <mxCell id="YlZFul1MHV9o11l2ybtj-90" value="" style="endArrow=none;html=1;rounded=0;entryX=1;entryY=0.5;entryDx=0;entryDy=0;exitX=0;exitY=0.5;exitDx=0;exitDy=0;" edge="1" parent="1" source="YlZFul1MHV9o11l2ybtj-60" target="YlZFul1MHV9o11l2ybtj-52">
          <mxGeometry relative="1" as="geometry">
            <mxPoint x="1116" y="1755" as="sourcePoint" />
            <mxPoint x="1276" y="1755" as="targetPoint" />
          </mxGeometry>
        </mxCell>
        <mxCell id="YlZFul1MHV9o11l2ybtj-92" value="" style="endArrow=none;html=1;rounded=0;entryX=1;entryY=0.5;entryDx=0;entryDy=0;exitX=0;exitY=0.5;exitDx=0;exitDy=0;" edge="1" parent="1" source="YlZFul1MHV9o11l2ybtj-62" target="YlZFul1MHV9o11l2ybtj-52">
          <mxGeometry relative="1" as="geometry">
            <mxPoint x="1116" y="1755" as="sourcePoint" />
            <mxPoint x="1276" y="1755" as="targetPoint" />
          </mxGeometry>
        </mxCell>
        <mxCell id="YlZFul1MHV9o11l2ybtj-93" value="" style="endArrow=none;html=1;rounded=0;entryX=1;entryY=0.5;entryDx=0;entryDy=0;exitX=0;exitY=0.5;exitDx=0;exitDy=0;" edge="1" parent="1" source="YlZFul1MHV9o11l2ybtj-63" target="YlZFul1MHV9o11l2ybtj-52">
          <mxGeometry relative="1" as="geometry">
            <mxPoint x="1116" y="1755" as="sourcePoint" />
            <mxPoint x="1276" y="1755" as="targetPoint" />
          </mxGeometry>
        </mxCell>
        <mxCell id="YlZFul1MHV9o11l2ybtj-96" value="" style="endArrow=none;html=1;rounded=0;entryX=0.5;entryY=0;entryDx=0;entryDy=0;" edge="1" parent="1" source="YlZFul1MHV9o11l2ybtj-65" target="YlZFul1MHV9o11l2ybtj-58">
          <mxGeometry relative="1" as="geometry">
            <mxPoint x="1116" y="1512" as="sourcePoint" />
            <mxPoint x="1276" y="1512" as="targetPoint" />
          </mxGeometry>
        </mxCell>
        <mxCell id="YlZFul1MHV9o11l2ybtj-97" value="" style="endArrow=none;html=1;rounded=0;entryX=0.5;entryY=0;entryDx=0;entryDy=0;exitX=0;exitY=0.5;exitDx=0;exitDy=0;" edge="1" parent="1" source="YlZFul1MHV9o11l2ybtj-68" target="YlZFul1MHV9o11l2ybtj-58">
          <mxGeometry relative="1" as="geometry">
            <mxPoint x="1116" y="1512" as="sourcePoint" />
            <mxPoint x="1276" y="1512" as="targetPoint" />
          </mxGeometry>
        </mxCell>
        <mxCell id="YlZFul1MHV9o11l2ybtj-98" style="edgeStyle=orthogonalEdgeStyle;rounded=0;orthogonalLoop=1;jettySize=auto;html=1;exitX=0.5;exitY=1;exitDx=0;exitDy=0;" edge="1" parent="1" source="YlZFul1MHV9o11l2ybtj-68" target="YlZFul1MHV9o11l2ybtj-68">
          <mxGeometry relative="1" as="geometry" />
        </mxCell>
        <mxCell id="YlZFul1MHV9o11l2ybtj-99" value="" style="endArrow=none;html=1;rounded=0;entryX=0.5;entryY=0;entryDx=0;entryDy=0;exitX=0;exitY=0.5;exitDx=0;exitDy=0;" edge="1" parent="1" source="YlZFul1MHV9o11l2ybtj-66" target="YlZFul1MHV9o11l2ybtj-58">
          <mxGeometry relative="1" as="geometry">
            <mxPoint x="1116" y="1512" as="sourcePoint" />
            <mxPoint x="1276" y="1512" as="targetPoint" />
          </mxGeometry>
        </mxCell>
        <mxCell id="YlZFul1MHV9o11l2ybtj-100" value="" style="endArrow=none;html=1;rounded=0;entryX=0.5;entryY=1;entryDx=0;entryDy=0;exitX=0.5;exitY=0;exitDx=0;exitDy=0;" edge="1" parent="1" source="YlZFul1MHV9o11l2ybtj-58" target="YlZFul1MHV9o11l2ybtj-67">
          <mxGeometry relative="1" as="geometry">
            <mxPoint x="1404" y="1350" as="sourcePoint" />
            <mxPoint x="1276" y="1512" as="targetPoint" />
          </mxGeometry>
        </mxCell>
        <mxCell id="YlZFul1MHV9o11l2ybtj-101" value="" style="endArrow=none;html=1;rounded=0;entryX=0.5;entryY=1;entryDx=0;entryDy=0;exitX=0.5;exitY=0;exitDx=0;exitDy=0;" edge="1" parent="1" source="YlZFul1MHV9o11l2ybtj-51" target="YlZFul1MHV9o11l2ybtj-71">
          <mxGeometry relative="1" as="geometry">
            <mxPoint x="1120" y="1512" as="sourcePoint" />
            <mxPoint x="1280" y="1512" as="targetPoint" />
          </mxGeometry>
        </mxCell>
        <mxCell id="YlZFul1MHV9o11l2ybtj-102" value="" style="endArrow=none;html=1;rounded=0;entryX=0.5;entryY=1;entryDx=0;entryDy=0;exitX=0.5;exitY=0;exitDx=0;exitDy=0;" edge="1" parent="1" source="YlZFul1MHV9o11l2ybtj-51" target="YlZFul1MHV9o11l2ybtj-72">
          <mxGeometry relative="1" as="geometry">
            <mxPoint x="1120" y="1512" as="sourcePoint" />
            <mxPoint x="1280" y="1512" as="targetPoint" />
          </mxGeometry>
        </mxCell>
        <mxCell id="YlZFul1MHV9o11l2ybtj-103" value="" style="endArrow=none;html=1;rounded=0;entryX=0.5;entryY=1;entryDx=0;entryDy=0;exitX=0.5;exitY=0;exitDx=0;exitDy=0;" edge="1" parent="1" source="YlZFul1MHV9o11l2ybtj-51" target="YlZFul1MHV9o11l2ybtj-73">
          <mxGeometry relative="1" as="geometry">
            <mxPoint x="1120" y="1512" as="sourcePoint" />
            <mxPoint x="1280" y="1512" as="targetPoint" />
          </mxGeometry>
        </mxCell>
        <mxCell id="YlZFul1MHV9o11l2ybtj-106" style="edgeStyle=orthogonalEdgeStyle;rounded=0;orthogonalLoop=1;jettySize=auto;html=1;exitX=0.5;exitY=1;exitDx=0;exitDy=0;" edge="1" parent="1" source="YlZFul1MHV9o11l2ybtj-68" target="YlZFul1MHV9o11l2ybtj-68">
          <mxGeometry relative="1" as="geometry" />
        </mxCell>
        <mxCell id="YlZFul1MHV9o11l2ybtj-107" value="" style="ellipse;whiteSpace=wrap;html=1;align=center;" vertex="1" parent="1">
          <mxGeometry x="112" y="1191" width="224" height="97" as="geometry" />
        </mxCell>
        <mxCell id="YlZFul1MHV9o11l2ybtj-110" value="&lt;font style=&quot;font-size: 15px;&quot;&gt;NOMBRE&lt;/font&gt;" style="ellipse;whiteSpace=wrap;html=1;align=center;strokeWidth=2;" vertex="1" parent="1">
          <mxGeometry x="616" y="1455.75" width="196" height="126" as="geometry" />
        </mxCell>
        <mxCell id="YlZFul1MHV9o11l2ybtj-111" value="" style="endArrow=none;html=1;rounded=0;entryX=0.75;entryY=1;entryDx=0;entryDy=0;exitX=0;exitY=0;exitDx=0;exitDy=0;" edge="1" parent="1" source="YlZFul1MHV9o11l2ybtj-116" target="YlZFul1MHV9o11l2ybtj-47">
          <mxGeometry relative="1" as="geometry">
            <mxPoint x="994" y="1610" as="sourcePoint" />
            <mxPoint x="1154" y="1610" as="targetPoint" />
          </mxGeometry>
        </mxCell>
        <mxCell id="YlZFul1MHV9o11l2ybtj-112" value="" style="endArrow=none;html=1;rounded=0;entryX=0;entryY=0.5;entryDx=0;entryDy=0;exitX=1;exitY=0.5;exitDx=0;exitDy=0;" edge="1" parent="1" source="YlZFul1MHV9o11l2ybtj-110" target="YlZFul1MHV9o11l2ybtj-47">
          <mxGeometry relative="1" as="geometry">
            <mxPoint x="994" y="1610" as="sourcePoint" />
            <mxPoint x="1154" y="1610" as="targetPoint" />
          </mxGeometry>
        </mxCell>
        <mxCell id="YlZFul1MHV9o11l2ybtj-113" style="edgeStyle=orthogonalEdgeStyle;rounded=0;orthogonalLoop=1;jettySize=auto;html=1;exitX=0.5;exitY=1;exitDx=0;exitDy=0;" edge="1" parent="1" source="YlZFul1MHV9o11l2ybtj-66" target="YlZFul1MHV9o11l2ybtj-66">
          <mxGeometry relative="1" as="geometry" />
        </mxCell>
        <mxCell id="YlZFul1MHV9o11l2ybtj-116" value="&lt;font style=&quot;font-size: 15px;&quot;&gt;ID PERSONAJE&lt;/font&gt;" style="ellipse;whiteSpace=wrap;html=1;align=center;fontStyle=4;strokeWidth=2;" vertex="1" parent="1">
          <mxGeometry x="1350.5" y="1815" width="266" height="153" as="geometry" />
        </mxCell>
        <mxCell id="YlZFul1MHV9o11l2ybtj-119" value="NOMBRE" style="ellipse;whiteSpace=wrap;html=1;align=center;fontStyle=4;strokeWidth=2;" vertex="1" parent="1">
          <mxGeometry x="112" y="1624" width="293" height="202" as="geometry" />
        </mxCell>
      </root>
    </mxGraphModel>
  </diagram>
</mxfile>
